<svg width="420" height="96" viewBox="0 0 420 96" fill="none" xmlns="http://www.w3.org/2000/svg">
  <rect width="420" height="96" rx="18" fill="#01203D"/>
  <path d="M34 68V28H50.4C60.8 28 67.2 33.4 67.2 42.6C67.2 52 60.8 57.2 50.4 57.2H42.8V68H34ZM42.8 50.8H49.5C54.7 50.8 59.1 48.7 59.1 42.6C59.1 36.5 54.7 34.4 49.5 34.4H42.8V50.8Z" fill="#F7F4EE"/>
  <path d="M78.4648 68V34.64H65.9848V28H98.6568V34.64H86.1208V68H78.4648Z" fill="#F7F4EE"/>
  <path d="M105.967 68V28H113.623V68H105.967Z" fill="#F7F4EE"/>
  <path d="M125.088 68V28H132.912L146.224 55.688L159.592 28H167.36V68H160.096V41.2L148.848 64.352H143.488L132.296 41.2V68H125.088Z" fill="#F7F4EE"/>
  <path d="M199.593 68L195.937 57.648H179.417L175.761 68H167.825L182.529 28H192.881L207.529 68H199.593ZM181.665 51.288H193.689L187.697 34.264L181.665 51.288Z" fill="#A68661"/>
  <path d="M221.666 68V57.648L207.746 28H216.298L225.49 48.728L234.682 28H243.178L229.322 57.648V68H221.666Z" fill="#F7F4EE"/>
  <path d="M261.03 36.16V68H253.374V36.16H241.798V28H272.606V36.16H261.03Z" fill="#F7F4EE"/>
  <path d="M296.192 68V51.48H280.4V68H272.744V28H280.4V44.896H296.192V28H303.848V68H296.192Z" fill="#F7F4EE"/>
  <path d="M315.136 68V28H342.08V34.416H322.792V44.784H340.944V51.088H322.792V61.584H342.08V68H315.136Z" fill="#F7F4EE"/>
  <path d="M352.58 68V28H367.676C378.3 28 385.62 35.264 385.62 48C385.62 60.736 378.3 68 367.676 68H352.58ZM360.236 61.416H367.228C373.5 61.416 377.74 56.784 377.74 48C377.74 39.216 373.5 34.584 367.228 34.584H360.236V61.416Z" fill="#F7F4EE"/>
  <text x="112" y="82" fill="#A68661" font-family="Georgia, serif" font-size="12" letter-spacing="3.2">INDEPENDENT DAMP SPECIALISTS</text>
</svg>
