<?xml version="1.0" encoding="UTF-8"?> <svg xmlns="http://www.w3.org/2000/svg" id="Layer_1" viewBox="0 0 780.55 464.99"><defs><style>.cls-1{fill:#385e9d;fill-rule:evenodd;stroke-width:0px;}</style></defs><path class="cls-1" d="M536.11,301.32c-1.06-.37-2.83-.57-5.3-.58h-1.52s-.04,11.15-.04,11.15h1.91c2.57.02,4.31-.19,5.27-.63.95-.43,1.69-1.09,2.22-1.98.54-.88.81-1.89.81-3.01,0-1.12-.29-2.12-.87-3.03-.58-.9-1.41-1.54-2.48-1.92"></path><path class="cls-1" d="M211.66,368.53c-.58-.9-1.41-1.54-2.47-1.92-1.07-.37-2.84-.57-5.31-.58h0s-1.51,0-1.51,0l-.05,11.16h1.92c2.55.02,4.31-.19,5.26-.63.94-.43,1.69-1.09,2.22-1.97.54-.89.8-1.89.81-3.03,0-1.11-.29-2.12-.87-3.03"></path><path class="cls-1" d="M206.05,322.09c2.5-2.52,3.76-5.71,3.77-9.57.01-3.8-1.25-6.9-3.79-9.3-.94-.9-2.01-1.64-3.23-2.22-1.22-.58-2.38-.96-3.46-1.15-1.1-.19-2.85-.28-5.27-.3h0s-6.3-.03-6.3-.03l-.11,26.29,6.46.03c2.52,0,4.48-.15,5.87-.49,1.4-.34,2.56-.78,3.5-1.3.94-.53,1.79-1.18,2.57-1.95"></path><path class="cls-1" d="M98.12,314.93c-1.16-.45-2.99-.67-5.49-.68l-4.71-.02-.05,11.21h4.97c2.75.03,4.63-.18,5.61-.61.99-.43,1.78-1.1,2.38-2,.6-.91.9-1.89.91-2.93,0-1.08-.31-2.07-.93-2.97-.63-.9-1.52-1.56-2.68-2.01"></path><path class="cls-1" d="M97.02,308.23c1.14-1.02,1.71-2.35,1.72-3.99.02-3.39-2.13-5.1-6.43-5.12h-4.33s-.04,10.61-.04,10.61h3.36c2.69.02,4.6-.48,5.74-1.51"></path><polygon class="cls-1" points="363.97 382.77 374.92 382.81 369.29 369.99 363.97 382.77"></polygon><path class="cls-1" d="M452.48,367.07h0c-4.03-.01-7.35,1.24-9.96,3.76-2.61,2.52-3.91,5.74-3.93,9.67-.02,3.81,1.27,6.99,3.86,9.52,2.6,2.55,5.85,3.82,9.76,3.84,3.93.01,7.21-1.25,9.86-3.82,2.63-2.57,3.96-5.78,3.98-9.62.02-3.75-1.29-6.9-3.9-9.47-2.62-2.57-5.84-3.86-9.67-3.88"></path><path class="cls-1" d="M573.77,124.91c-3.56-10.97-7.11-24.69-10.07-35.66h-.6c-3.05,10.94-6.11,24.9-9.46,35.57l-12.18,39.13,44.76.19-12.45-39.23Z"></path><path class="cls-1" d="M659.68,19.93l-640.56-.58-1.26,303.64,111.63,120.05,631.88,2.62,1.3-315.07-103-110.65ZM71.56,55.98l59.19.25c27.94.11,45.06,1.28,59.74,9.29,14.09,6.91,24.25,19.55,24.18,36.27-.07,16.43-10.64,31.73-33.5,39.31v.55c23.1,5.85,40.16,21.82,40.06,45.65-.06,16.71-8.53,29.83-21.19,39.09-14.77,10.63-39.41,14.63-79.67,14.47l-49.58-.21.76-184.66ZM225.48,295.17l-.14,35.34h-5.05s.15-35.36.15-35.36h5.04ZM179.18,325.71v4.6s-20.93-.09-20.93-.09l.15-35.33h5.05s-.13,30.75-.13,30.75l15.86.06ZM105.54,325.21c-.93,1.41-2.29,2.56-4.09,3.45-1.79.89-4.04,1.32-6.73,1.31h0s-11.94-.04-11.94-.04l.15-35.34,9.23.03c2.9.01,5.17.41,6.8,1.21,1.63.79,2.87,1.87,3.72,3.25.85,1.37,1.28,2.97,1.27,4.77-.01,3.48-1.82,5.95-5.4,7.45,2.57.5,4.61,1.57,6.13,3.21,1.52,1.64,2.27,3.6,2.26,5.88-.01,1.8-.48,3.42-1.41,4.83M140.49,314.88c-.01,2.71-.22,4.76-.62,6.14-.4,1.38-.89,2.54-1.47,3.45-.59.91-1.3,1.74-2.15,2.46-2.8,2.4-6.45,3.59-10.96,3.57-4.59-.02-8.27-1.23-11.03-3.64-.84-.74-1.55-1.58-2.12-2.5-.58-.92-1.06-2.04-1.43-3.38-.37-1.34-.55-3.43-.54-6.27l.08-20.01h5.06s-.08,20.08-.08,20.08c-.01,3.32.36,5.63,1.11,6.94.75,1.3,1.9,2.35,3.44,3.14,1.54.79,3.36,1.19,5.47,1.2,2.99.02,5.43-.76,7.32-2.32,1-.84,1.72-1.84,2.16-2.98.45-1.15.67-3.11.68-5.89l.08-20.05,5.07.02-.08,20.06ZM146.57,294.84h5.04s-.15,35.36-.15,35.36h-5.04s.15-35.36.15-35.36ZM164.91,394.67c-1.9,1.76-4.36,2.64-7.39,2.62-3.49-.01-6.65-1.09-9.5-3.26l.03-6.42c2.71,3.48,5.85,5.21,9.44,5.23,1.58,0,2.9-.43,3.95-1.31,1.05-.87,1.59-1.98,1.59-3.3,0-2.16-1.53-4.2-4.62-6.14h0l-3.82-2.35c-2.4-1.48-4.1-2.94-5.11-4.37-1.02-1.43-1.51-3.08-1.5-4.93.01-2.78.98-5.04,2.91-6.76,1.93-1.73,4.43-2.59,7.51-2.58,2.94.01,5.64.85,8.09,2.52l-.02,5.75c-2.53-2.46-5.25-3.7-8.18-3.71-1.65,0-3,.37-4.06,1.13-1.06.76-1.6,1.73-1.6,2.93,0,1.06.38,2.05,1.15,2.98s2.03,1.9,3.75,2.93l3.85,2.3c4.28,2.59,6.42,5.88,6.4,9.86-.01,2.84-.97,5.13-2.87,6.9M192.7,396.97l-20.46-.08.15-35.29,19.97.08-.02,4.51-14.93-.06-.04,10.78,14.43.06-.02,4.53-14.43-.06-.04,10.98,15.41.06-.02,4.5ZM182.59,330.29l.15-35.3,11.88.05c4.79.02,8.58.76,11.36,2.21,2.78,1.46,4.99,3.58,6.63,6.39,1.64,2.81,2.45,5.86,2.43,9.17-.01,2.36-.46,4.62-1.39,6.78-.91,2.15-2.22,4.04-3.91,5.67-1.72,1.68-3.72,2.94-5.99,3.79-1.33.52-2.55.86-3.67,1.03-1.1.17-3.23.25-6.35.24l-11.15-.05ZM218.35,397.13l-1.52-2.34c-.05-.08-.15-.22-.3-.43l-.97-1.4-1.56-2.59-1.67-2.77c-1.03-1.45-1.99-2.61-2.85-3.48-.86-.86-1.64-1.48-2.34-1.87-.7-.38-1.87-.58-3.52-.58h-1.31s-.07,15.38-.07,15.38h-5.04s.14-35.36.14-35.36l8.82.03c3.57.01,6.4.91,8.48,2.69,2.09,1.78,3.12,4.19,3.11,7.2-.01,2.06-.53,3.84-1.56,5.34-1.03,1.49-2.51,2.61-4.43,3.34,1.13.75,2.22,1.76,3.29,3.05,1.07,1.29,2.57,3.52,4.52,6.72,1.21,2.01,2.19,3.52,2.93,4.54l1.85,2.54-6-.03ZM235.5,397.36h-1.14l-15.03-35.57h5.07s10.5,24.88,10.5,24.88l10.63-24.76,5.03.02-15.05,35.43ZM258.32,397.3h-5.05s.15-35.36.15-35.36h5.04s-.14,35.36-.14,35.36ZM237.13,303.34l-.11,27.22h-4.74s.14-35.36.14-35.36h4.09s23.64,27.56,23.64,27.56l.12-27.45h4.79s-.14,35.36-.14,35.36h-4.34s-23.45-27.34-23.45-27.34ZM295.48,394.83c-3.71,2.01-7.98,3-12.83,2.98-3.93-.01-7.27-.82-10-2.42-2.73-1.59-4.89-3.79-6.48-6.58-1.58-2.79-2.37-5.81-2.36-9.04.02-5.15,1.87-9.46,5.54-12.96,3.68-3.49,8.19-5.23,13.55-5.21,3.7.01,7.81,1.01,12.32,2.96l-.02,5.45c-4.11-2.38-8.13-3.57-12.07-3.59-4.04-.01-7.39,1.24-10.06,3.79-2.68,2.54-4.03,5.74-4.04,9.59-.01,3.88,1.29,7.07,3.9,9.57,2.61,2.52,5.96,3.78,10.05,3.79,4.27.01,8.44-1.28,12.52-3.9l-.02,5.57ZM279.37,322.92c2.64,2.55,6.02,3.84,10.17,3.85,2.03.01,4.43-.44,7.24-1.36l.48-.16.03-7.36-6.78-.03.02-4.49,11.83.05-.07,14.98c-4.34,1.87-8.65,2.8-12.92,2.78-5.83-.01-10.49-1.75-13.97-5.18-3.47-3.43-5.19-7.65-5.17-12.66.02-5.28,1.85-9.66,5.47-13.15,3.63-3.5,8.17-5.23,13.62-5.21,1.99,0,3.87.23,5.65.67,1.78.44,4.03,1.24,6.75,2.39l-.02,5.16c-4.19-2.46-8.36-3.7-12.49-3.72-3.86-.01-7.1,1.28-9.76,3.9-2.65,2.62-3.98,5.85-4,9.67-.02,4.01,1.29,7.3,3.92,9.86M321.09,397.51l-20.45-.08.14-35.29,19.97.08-.02,4.51-14.93-.06-.04,10.78,14.42.06-.02,4.53-14.42-.06-.04,10.98,15.4.06v4.5ZM341.49,310.93l-.02,4.52-14.42-.06-.04,10.98,15.41.06-.02,4.5-20.45-.08.15-35.29,19.97.08-.02,4.51-14.93-.06-.04,10.77,14.43.06ZM340.71,395.39c-1.9,1.76-4.36,2.64-7.39,2.63-3.48-.01-6.64-1.1-9.49-3.26l.03-6.42c2.71,3.48,5.85,5.21,9.44,5.23,1.58,0,2.9-.43,3.95-1.3,1.06-.88,1.59-1.98,1.59-3.31.01-2.16-1.52-4.2-4.61-6.14h0s-3.82-2.35-3.82-2.35c-2.4-1.49-4.1-2.94-5.11-4.37-1.01-1.43-1.51-3.07-1.51-4.93.01-2.78.99-5.04,2.92-6.76,1.93-1.73,4.44-2.59,7.51-2.58,2.94.01,5.64.85,8.09,2.52l-.02,5.75c-2.52-2.46-5.25-3.7-8.18-3.71-1.65-.01-3,.37-4.07,1.13-1.06.76-1.6,1.73-1.6,2.93,0,1.05.39,2.05,1.16,2.98.78.93,2.03,1.9,3.75,2.93l3.84,2.3c4.28,2.59,6.42,5.88,6.41,9.85-.01,2.84-.97,5.14-2.87,6.9M351.62,331.04h-4.74s.15-35.36.15-35.36l4.09.02,23.64,27.55.11-27.45,4.8.02-.15,35.34h-4.34s-23.44-27.33-23.44-27.33l-.11,27.22ZM381.63,397.83l-4.66-10.5-15.03-.06-4.45,10.46h-5.18s15.28-35.52,15.28-35.52h3.55s15.64,35.63,15.64,35.63l-5.16-.02ZM393.97,323.4c2.63,2.55,6.02,3.84,10.18,3.86,2.02.01,4.43-.44,7.24-1.36l.49-.16.03-7.37-6.78-.03.02-4.49,11.83.05-.06,14.98c-4.34,1.87-8.65,2.8-12.92,2.78-5.83-.01-10.49-1.75-13.96-5.18-3.48-3.43-5.21-7.65-5.19-12.66.02-5.28,1.85-9.66,5.48-13.16,3.62-3.5,8.17-5.23,13.61-5.21,1.99,0,3.87.23,5.65.67,1.78.44,4.03,1.24,6.75,2.39l-.02,5.17c-4.2-2.47-8.36-3.7-12.5-3.73-3.85-.01-7.1,1.29-9.75,3.91-2.65,2.62-3.98,5.84-4,9.67-.02,4.01,1.29,7.3,3.91,9.86M404.9,395.66c-1.9,1.77-4.36,2.64-7.39,2.62-3.48-.01-6.64-1.09-9.49-3.26l.03-6.42c2.71,3.48,5.85,5.22,9.44,5.23,1.58,0,2.89-.43,3.95-1.31,1.05-.87,1.59-1.98,1.59-3.31,0-2.16-1.53-4.2-4.62-6.14l-3.82-2.35c-2.4-1.49-4.1-2.94-5.11-4.37-1.01-1.43-1.51-3.07-1.51-4.93.02-2.78.99-5.04,2.92-6.76,1.94-1.73,4.44-2.59,7.51-2.58,2.94.01,5.64.85,8.08,2.52l-.02,5.75c-2.52-2.47-5.25-3.7-8.18-3.72-1.65,0-3,.37-4.06,1.13-1.07.76-1.6,1.73-1.6,2.93,0,1.06.38,2.05,1.16,2.98.78.93,2.02,1.9,3.75,2.93l3.85,2.31c4.28,2.59,6.42,5.88,6.41,9.86-.01,2.84-.97,5.13-2.87,6.9M427.52,395.75c-1.9,1.77-4.36,2.64-7.39,2.63-3.49-.01-6.65-1.09-9.5-3.25l.03-6.43c2.71,3.48,5.85,5.22,9.44,5.23,1.58,0,2.9-.43,3.95-1.31,1.05-.88,1.58-1.98,1.59-3.31.01-2.16-1.52-4.2-4.61-6.14h0s-3.82-2.35-3.82-2.35c-2.4-1.48-4.11-2.94-5.12-4.37-1.01-1.43-1.51-3.07-1.5-4.93.01-2.78.98-5.04,2.91-6.76,1.93-1.73,4.43-2.59,7.51-2.58,2.94.01,5.64.85,8.09,2.52l-.02,5.75c-2.53-2.46-5.26-3.7-8.18-3.71-1.65,0-3,.37-4.06,1.13-1.06.76-1.6,1.73-1.6,2.93,0,1.06.38,2.05,1.16,2.98.78.93,2.03,1.9,3.75,2.93l3.85,2.3c4.28,2.59,6.42,5.88,6.41,9.85-.01,2.84-.97,5.14-2.87,6.9M423.27,295.99h5.19v35.37h-5.19v-35.37ZM465.71,393.45c-3.67,3.4-8.28,5.09-13.85,5.06-5.3-.01-9.72-1.74-13.24-5.18-3.52-3.43-5.27-7.72-5.25-12.86.02-5.28,1.82-9.64,5.4-13.09,3.57-3.44,8.08-5.16,13.52-5.13,5.44.01,9.98,1.77,13.58,5.25,3.6,3.47,5.4,7.81,5.38,13.02-.02,5.21-1.87,9.52-5.54,12.92M435.25,331.39l.14-35.34,4.09.02,23.64,27.55.12-27.46h4.79s-.14,35.36-.14,35.36h-4.35s-23.44-27.33-23.44-27.33l-.11,27.22h-4.74ZM403.71,242.03c-20.11-.08-36.11-.15-50.82-.21h0s-129.18-.54-129.18-.54l.77-184.66,123.86.51-.14,34.25-77.89-.33-.16,38.36,73.55.3-.14,33.97-73.55-.3-.18,43.84,76.66.32h0c14.58.06,40.56.17,60.08.25,21.03.09,32.18-7.81,32.23-19.86.05-11.51-9.54-18.13-33.84-26.17-33.6-10.82-55.46-27.9-55.35-54.75.13-31.51,29.07-55.5,76.84-55.3,22.83.09,39.63,4.55,51.63,9.53l-10.35,33.66c-8.1-3.6-22.54-8.64-42.37-8.73-19.83-.08-29.42,6.53-29.46,17.47-.05,11.78,11.35,17.03,37.44,26.18,35.7,12.2,52.46,29.26,52.34,55.29-.12,27.83-23.16,57.17-81.95,56.92M535.29,57.89l60.08.25,62.02,184.93-49.27-.2-15.43-47.47-57.98-.24-14.61,47.34-47.47-.2,62.65-184.42ZM613.26,324.31c2.63,2.55,6.02,3.84,10.18,3.85,2.02.01,4.43-.44,7.24-1.36l.48-.15.03-7.36-6.78-.03v-4.49s11.85.04,11.85.04l-.06,14.98c-4.34,1.87-8.65,2.8-12.93,2.78-5.83-.02-10.49-1.75-13.96-5.18-3.48-3.43-5.2-7.65-5.18-12.66.02-5.28,1.85-9.66,5.48-13.15,3.63-3.5,8.17-5.23,13.61-5.21,1.99,0,3.87.23,5.65.67,1.78.44,4.03,1.24,6.75,2.39l-.02,5.16c-4.19-2.46-8.36-3.7-12.49-3.72-3.85-.01-7.09,1.28-9.75,3.9-2.65,2.63-3.98,5.85-4,9.67-.02,4.01,1.29,7.3,3.91,9.86M598.94,296.72l-.14,35.35-4.34-.02-23.45-27.32-.11,27.22h-4.74s.15-35.36.15-35.36h4.08s23.64,27.56,23.64,27.56l.12-27.46,4.79.02ZM559.37,331.91h-5.19v-35.37h5.19v35.37ZM541.99,318.06c1.06,1.29,2.57,3.53,4.51,6.73,1.22,2.01,2.2,3.52,2.94,4.54l1.85,2.53-6.01-.03-1.52-2.33c-.05-.08-.15-.23-.3-.43l-.98-1.4-1.56-2.58-1.67-2.77c-1.04-1.45-1.98-2.61-2.85-3.48-.86-.86-1.64-1.48-2.34-1.87-.7-.38-1.88-.57-3.52-.58h-1.31s-.06,15.37-.06,15.37h-5.04s.14-35.35.14-35.35l8.82.03c3.57.01,6.39.91,8.48,2.69,2.09,1.78,3.13,4.18,3.11,7.19,0,2.06-.52,3.84-1.56,5.34-1.03,1.49-2.51,2.61-4.43,3.34,1.12.75,2.22,1.76,3.3,3.04M474.54,296.21l19.97.08-.02,4.51-14.92-.06-.05,10.77,14.43.06-.02,4.53-14.42-.06-.04,10.98,15.4.06-.02,4.5-20.45-.08.15-35.29ZM506.75,390.14l-.02,5.56c-3.71,2.01-7.98,3.01-12.82,2.98-3.93-.01-7.27-.82-10-2.42-2.73-1.6-4.9-3.79-6.48-6.58-1.58-2.79-2.37-5.81-2.36-9.04.02-5.15,1.87-9.46,5.54-12.96,3.67-3.49,8.18-5.23,13.55-5.21,3.7.01,7.81,1.01,12.32,2.96l-.02,5.44c-4.11-2.38-8.13-3.58-12.07-3.59-4.04-.01-7.39,1.24-10.07,3.79-2.67,2.54-4.01,5.73-4.03,9.58-.02,3.88,1.28,7.07,3.9,9.58,2.61,2.51,5.96,3.77,10.04,3.78,4.27.01,8.45-1.28,12.53-3.89M517.12,398.38h-5.19v-35.37h5.19v35.37ZM519.63,331.68l-20.45-.08.15-35.29,19.97.08-.02,4.51-14.92-.06-.04,10.77,14.42.06-.02,4.53-14.42-.06-.04,10.98,15.41.06-.02,4.5ZM549.19,398.52l-4.65-10.5-15.03-.06-4.45,10.46-5.18-.02,15.28-35.5h3.55s15.65,35.63,15.65,35.63h-5.16ZM578.57,367.75l-12.29-.06-.13,30.9-5.07-.02.13-30.89-12.08-.06.02-4.5,29.43.13-.02,4.5ZM587.41,398.68h-5.19v-35.37h5.19v35.37ZM624.9,394.11c-3.67,3.4-8.28,5.09-13.84,5.06-5.31-.01-9.73-1.74-13.24-5.18-3.53-3.43-5.28-7.72-5.25-12.86.02-5.28,1.82-9.64,5.4-13.08,3.58-3.44,8.08-5.15,13.53-5.13h0c5.45.02,9.97,1.77,13.58,5.25,3.6,3.47,5.4,7.81,5.38,13.02-.02,5.21-1.87,9.52-5.54,12.92M668.33,399h-4.34s-23.45-27.34-23.45-27.34l-.12,27.22-4.74-.02.15-35.35,4.09.02,23.64,27.55.12-27.45h4.79s-.14,35.36-.14,35.36Z"></path><path class="cls-1" d="M611.67,367.73h0c-4.03-.01-7.35,1.24-9.95,3.76-2.61,2.52-3.92,5.74-3.93,9.67-.02,3.81,1.28,6.99,3.87,9.52,2.6,2.55,5.85,3.82,9.76,3.84,3.93.01,7.22-1.26,9.86-3.83,2.63-2.57,3.96-5.78,3.98-9.62.02-3.75-1.29-6.9-3.9-9.47-2.62-2.57-5.84-3.86-9.67-3.88"></path><path class="cls-1" d="M173.17,185.45c.08-18.63-18.22-26.1-41.05-26.2l-15.63-.06-.21,52.06c4.5.57,9.92.59,17.72.62,20.73.09,39.09-6.96,39.17-26.42"></path><polygon class="cls-1" points="531.53 383.46 542.48 383.51 536.85 370.68 531.53 383.46"></polygon><path class="cls-1" d="M168.69,106.8c.06-13.98-11.63-21.42-32.36-21.5-9.91-.03-15.62.48-19.53,1.01l-.18,43.02,15.02.06c24.03.09,36.99-8.89,37.04-22.59"></path></svg> 