<?xml version="1.0" encoding="UTF-8"?> <svg xmlns="http://www.w3.org/2000/svg" width="84" height="90" viewBox="0 0 84 90" fill="none"><mask id="mask0_246_1393" style="mask-type:luminance" maskUnits="userSpaceOnUse" x="0" y="0" width="84" height="90"><path d="M84 0H0V90H84V0Z" fill="white"></path></mask><g mask="url(#mask0_246_1393)"><mask id="mask1_246_1393" style="mask-type:luminance" maskUnits="userSpaceOnUse" x="0" y="0" width="84" height="90"><path d="M84 0H0V90H84V0Z" fill="white"></path></mask><g mask="url(#mask1_246_1393)"><path d="M69.8567 77.9174H68.6819V79.2815H69.8567C70.1017 79.2815 70.2867 79.2267 70.4067 79.1172C70.5317 79.0076 70.5917 78.8334 70.5917 78.5894C70.5917 78.3455 70.5317 78.1812 70.4067 78.0767C70.2817 77.9721 70.1017 77.9174 69.8567 77.9174Z" fill="#385E9D"></path><path d="M39.5854 77.9174H38.4155V79.2815H39.5854C39.8304 79.2815 40.0153 79.2267 40.1353 79.1172C40.2603 79.0076 40.3203 78.8334 40.3203 78.5894C40.3203 78.3455 40.2603 78.1812 40.1353 78.0767C40.0103 77.9721 39.8304 77.9174 39.5854 77.9174Z" fill="#385E9D"></path><path d="M80.5104 0H3.48958C1.55981 0 0 1.55327 0 3.47494V86.53C0 88.4467 1.55981 90.005 3.48958 90.005H80.5154C82.4402 90.005 84.005 88.4517 84.005 86.53V3.47494C84 1.55327 82.4402 0 80.5104 0ZM40.4602 81.9349C40.4002 81.7806 40.3652 81.5964 40.3502 81.3873C40.3352 81.1732 40.3152 80.9691 40.2902 80.775C40.2552 80.5211 40.1752 80.3369 40.0552 80.2174C39.9352 80.0979 39.7453 80.0382 39.4753 80.0382H38.4054V81.93H37.3356V77.086H39.9602C40.1802 77.086 40.3752 77.1208 40.5502 77.1905C40.7252 77.2602 40.8751 77.3548 41.0001 77.4793C41.1251 77.6037 41.2201 77.7431 41.2851 77.9024C41.3501 78.0617 41.3851 78.236 41.3851 78.4202C41.3851 78.7039 41.3251 78.9529 41.2051 79.162C41.0851 79.3711 40.8901 79.5304 40.6152 79.6349V79.6498C40.7451 79.6847 40.8551 79.7395 40.9401 79.8141C41.0251 79.8888 41.0951 79.9784 41.1501 80.078C41.2051 80.1776 41.2451 80.2921 41.2701 80.4116C41.2951 80.536 41.3101 80.6555 41.3201 80.7799C41.3201 80.8546 41.3301 80.9442 41.3351 81.0488C41.3401 81.1533 41.3451 81.2579 41.3601 81.3674C41.3701 81.4769 41.3901 81.5765 41.4151 81.6761C41.4401 81.7707 41.4751 81.8553 41.5251 81.925H40.4552L40.4602 81.9349ZM46.1245 81.9349H42.43V77.0909H46.0695V77.9871H43.4998V79.0275H45.8595V79.854H43.4998V81.0438H46.1245V81.9399V81.9349ZM51.1389 81.9349H50.459L50.349 81.3873C50.159 81.6313 49.9491 81.8005 49.7141 81.9001C49.4841 81.9997 49.2491 82.0445 49.0142 82.0445C48.6392 82.0445 48.3042 81.9798 48.0093 81.8503C47.7093 81.7209 47.4594 81.5416 47.2594 81.3176C47.0544 81.0886 46.8994 80.8248 46.7894 80.5211C46.6794 80.2174 46.6245 79.8888 46.6245 79.5353C46.6245 79.1819 46.6794 78.8384 46.7894 78.5297C46.8994 78.221 47.0544 77.9472 47.2594 77.7182C47.4643 77.4892 47.7143 77.305 48.0093 77.1756C48.3042 77.0461 48.6442 76.9814 49.0142 76.9814C49.2641 76.9814 49.5041 77.0163 49.7391 77.0909C49.974 77.1656 50.184 77.2751 50.374 77.4195C50.564 77.5639 50.719 77.7431 50.8389 77.9572C50.9639 78.1713 51.0389 78.4152 51.0639 78.689H50.044C49.979 78.4152 49.8591 78.2111 49.6741 78.0767C49.4941 77.9422 49.2741 77.8726 49.0142 77.8726C48.7742 77.8726 48.5692 77.9223 48.3992 78.0119C48.2293 78.1065 48.0943 78.231 47.9893 78.3853C47.8843 78.5397 47.8093 78.7189 47.7593 78.918C47.7093 79.1172 47.6893 79.3213 47.6893 79.5353C47.6893 79.7494 47.7143 79.9386 47.7593 80.1278C47.8043 80.3219 47.8843 80.4912 47.9893 80.6455C48.0943 80.7999 48.2293 80.9243 48.3992 81.0139C48.5692 81.1085 48.7742 81.1533 49.0142 81.1533C49.3691 81.1533 49.6441 81.0637 49.8341 80.8845C50.029 80.7053 50.139 80.4464 50.169 80.1079H49.0942V79.3163H51.1389V81.9349ZM53.2987 81.92H52.2288V77.076H53.2987V81.92ZM58.0031 81.1235C57.9181 81.3126 57.7881 81.4769 57.6181 81.6163C57.4482 81.7557 57.2382 81.8603 56.9832 81.9399C56.7332 82.0196 56.4383 82.0544 56.1083 82.0544C55.8384 82.0544 55.5784 82.0196 55.3284 81.9549C55.0784 81.8901 54.8535 81.7856 54.6585 81.6462C54.4635 81.5068 54.3135 81.3276 54.1986 81.1085C54.0836 80.8895 54.0286 80.6306 54.0336 80.3319H55.0684C55.0684 80.4962 55.0984 80.6306 55.1584 80.7451C55.2184 80.8596 55.2984 80.9492 55.3934 81.0189C55.4934 81.0886 55.6034 81.1434 55.7384 81.1732C55.8683 81.2081 56.0083 81.223 56.1483 81.223C56.2433 81.223 56.3483 81.2131 56.4533 81.1981C56.5633 81.1832 56.6633 81.1533 56.7582 81.1085C56.8532 81.0637 56.9332 80.999 56.9982 80.9193C57.0632 80.8397 57.0932 80.7401 57.0932 80.6206C57.0932 80.4862 57.0532 80.3817 56.9682 80.302C56.8832 80.2224 56.7732 80.1527 56.6383 80.0979C56.5033 80.0431 56.3483 79.9983 56.1733 79.9535C55.9983 79.9137 55.8234 79.8689 55.6484 79.8191C55.4684 79.7743 55.2884 79.7195 55.1184 79.6548C54.9435 79.5901 54.7885 79.5055 54.6535 79.4009C54.5185 79.2964 54.4085 79.1669 54.3235 79.0076C54.2385 78.8533 54.1986 78.6641 54.1986 78.4401C54.1986 78.1912 54.2535 77.9771 54.3585 77.7929C54.4635 77.6087 54.6035 77.4593 54.7785 77.3349C54.9485 77.2104 55.1484 77.1208 55.3634 77.066C55.5784 77.0063 55.7984 76.9764 56.0183 76.9764C56.2733 76.9764 56.5183 77.0063 56.7532 77.0611C56.9882 77.1158 57.1932 77.2104 57.3782 77.3349C57.5581 77.4643 57.7031 77.6236 57.8131 77.8228C57.9181 78.0169 57.9731 78.2559 57.9731 78.5397H56.9382C56.9282 78.3953 56.8982 78.2758 56.8482 78.1812C56.7982 78.0866 56.7282 78.0119 56.6433 77.9572C56.5583 77.9024 56.4583 77.8626 56.3433 77.8427C56.2333 77.8228 56.1133 77.8078 55.9783 77.8078C55.8933 77.8078 55.8034 77.8178 55.7184 77.8327C55.6334 77.8526 55.5534 77.8825 55.4834 77.9273C55.4134 77.9721 55.3534 78.0269 55.3084 78.0966C55.2634 78.1663 55.2384 78.2509 55.2384 78.3555C55.2384 78.4501 55.2584 78.5297 55.2934 78.5894C55.3284 78.6492 55.3984 78.7039 55.5084 78.7487C55.6184 78.7985 55.7634 78.8483 55.9533 78.8981C56.1433 78.9479 56.3883 79.0126 56.6933 79.0873C56.7832 79.1072 56.9082 79.1371 57.0732 79.1869C57.2332 79.2366 57.3932 79.3113 57.5532 79.4159C57.7131 79.5204 57.8481 79.6598 57.9631 79.8341C58.0781 80.0083 58.1381 80.2323 58.1381 80.5012C58.1381 80.7252 58.0931 80.9293 58.0081 81.1185M62.3676 77.9821H60.9077V81.9349H59.8379V77.9821H58.378V77.086H62.3676V77.9821ZM66.6771 81.9349H62.9825V77.0909H66.6221V77.9871H64.0524V79.0275H66.4121V79.854H64.0524V81.0438H66.6771V81.9399V81.9349ZM70.7366 81.9349C70.6766 81.7806 70.6416 81.5964 70.6266 81.3873C70.6116 81.1732 70.5916 80.9691 70.5666 80.775C70.5316 80.5211 70.4516 80.3369 70.3366 80.2174C70.2166 80.0979 70.0267 80.0382 69.7567 80.0382H68.6868V81.93H67.617V77.086H70.2416C70.4616 77.086 70.6566 77.1208 70.8316 77.1905C71.0065 77.2602 71.1565 77.3548 71.2815 77.4793C71.4065 77.6037 71.5015 77.7431 71.5665 77.9024C71.6315 78.0617 71.6665 78.236 71.6665 78.4202C71.6665 78.7039 71.6065 78.9529 71.4865 79.162C71.3665 79.3711 71.1665 79.5304 70.8966 79.6349V79.6498C71.0265 79.6847 71.1365 79.7395 71.2215 79.8141C71.3065 79.8888 71.3765 79.9784 71.4315 80.078C71.4865 80.1776 71.5265 80.2921 71.5515 80.4116C71.5765 80.536 71.5915 80.6555 71.6015 80.7799C71.6015 80.8546 71.6115 80.9442 71.6165 81.0488C71.6215 81.1533 71.6265 81.2579 71.6415 81.3674C71.6515 81.4769 71.6715 81.5765 71.6965 81.6761C71.7215 81.7707 71.7565 81.8553 71.8065 81.925H70.7366V81.9349ZM75.0461 10.848V71.2562C75.0461 74.074 72.2164 74.074 72.2164 74.074C72.2164 74.074 11.4586 74.069 11.4236 74.069C10.0088 74.069 8.86395 72.929 8.86395 71.5201C8.86395 70.9227 9.09392 70.2705 9.40888 69.9369C9.66885 69.6631 70.7466 8.75207 70.7466 8.75207C71.2015 8.32891 71.8115 8.07003 72.4864 8.07003C73.9012 8.07003 75.0461 9.21009 75.0461 10.619C75.0461 10.6937 75.0411 10.7683 75.0361 10.848H75.0461Z" fill="#385E9D"></path><path d="M49.894 67.9655V60.8712C49.894 60.0448 49.709 59.3827 49.339 58.8798C48.9691 58.377 48.4941 57.9887 47.9092 57.7049C47.3243 57.4262 46.6793 57.237 45.9744 57.1374C45.2695 57.0428 44.5696 56.993 43.8847 56.993C43.1248 56.993 42.3699 57.0677 41.6199 57.2171C40.87 57.3664 40.1951 57.6153 39.5952 57.9688C38.9953 58.3223 38.5003 58.7853 38.1104 59.3677C37.7204 59.9502 37.5004 60.6771 37.4454 61.5582H41.205C41.275 60.8214 41.525 60.2937 41.9449 59.9751C42.3699 59.6565 42.9498 59.5022 43.6947 59.5022C44.0297 59.5022 44.3446 59.5221 44.6346 59.5669C44.9246 59.6117 45.1795 59.6963 45.4045 59.8307C45.6245 59.9651 45.7994 60.1493 45.9344 60.3833C46.0694 60.6223 46.1344 60.9409 46.1344 61.3442C46.1494 61.7325 46.0394 62.0262 45.7894 62.2254C45.5395 62.4295 45.2045 62.5788 44.7846 62.6883C44.3646 62.7979 43.8747 62.8725 43.3297 62.9273C42.7798 62.9821 42.2249 63.0518 41.6599 63.1364C41.095 63.226 40.5351 63.3405 39.9751 63.4899C39.4202 63.6392 38.9253 63.8633 38.4903 64.162C38.0554 64.4607 37.7054 64.8589 37.4304 65.3618C37.1555 65.8646 37.0205 66.5018 37.0205 67.2735C37.0205 67.9754 37.1405 68.5828 37.3755 69.0956C37.6154 69.6084 37.9454 70.0265 38.3703 70.3601C38.7953 70.6937 39.2902 70.9426 39.8552 71.0969C40.4201 71.2562 41.03 71.3359 41.6849 71.3359C42.5298 71.3359 43.3597 71.2114 44.1746 70.9675C44.9845 70.7186 45.6945 70.2904 46.2944 69.6731C46.3094 69.9021 46.3444 70.1261 46.3894 70.3452C46.4344 70.5642 46.4894 70.7783 46.5594 70.9924H50.3739C50.1989 70.7086 50.0739 70.2904 50.0039 69.7278C49.934 69.1653 49.899 68.5778 49.899 67.9605M46.1394 65.7202C46.1394 65.9293 46.1194 66.2131 46.0744 66.5616C46.0294 66.915 45.9094 67.2585 45.7145 67.6021C45.5195 67.9456 45.2195 68.2393 44.8146 68.4832C44.4096 68.7322 43.8347 68.8516 43.0948 68.8516C42.7948 68.8516 42.5048 68.8267 42.2199 68.772C41.9349 68.7222 41.6899 68.6276 41.48 68.4932C41.27 68.3588 41.1 68.1796 40.975 67.9505C40.85 67.7215 40.79 67.4427 40.79 67.1042C40.79 66.7657 40.85 66.462 40.975 66.233C41.1 66.004 41.26 65.8148 41.465 65.6654C41.6699 65.5161 41.9049 65.3966 42.1799 65.307C42.4548 65.2174 42.7298 65.1477 43.0148 65.0979C43.3147 65.0431 43.6147 65.0033 43.9147 64.9635C44.2146 64.9286 44.5046 64.8838 44.7746 64.834C45.0495 64.7793 45.3045 64.7146 45.5445 64.6349C45.7845 64.5553 45.9794 64.4457 46.1394 64.3063V65.7053V65.7202ZM70.9615 59.4673C70.4065 58.7106 69.6966 58.1082 68.8317 57.6601C67.9668 57.2121 66.9519 56.988 65.7871 56.988C64.7472 56.988 63.7973 57.1723 62.9374 57.5407C62.0825 57.9091 61.3426 58.4169 60.7227 59.0591C60.1027 59.7013 59.6278 60.463 59.2928 61.3392C58.9579 62.2204 58.7929 63.1663 58.7929 64.1868C58.7929 65.2074 58.9529 66.2081 59.2828 67.0893C59.6128 67.9705 60.0728 68.7272 60.6727 69.3594C61.2726 69.9917 62.0025 70.4796 62.8724 70.8231C63.7373 71.1666 64.7072 71.3359 65.7871 71.3359C67.3419 71.3359 68.6667 70.9824 69.7616 70.2804C70.8565 69.5785 71.6664 68.4086 72.1963 66.7707H68.8867C68.7617 67.1938 68.4268 67.5921 67.8768 67.9705C67.3319 68.3488 66.677 68.538 65.9171 68.538C64.8572 68.538 64.0423 68.2642 63.4823 67.7215C62.9174 67.1789 62.6074 66.2977 62.5575 65.083H72.4363C72.5063 64.0275 72.4213 63.0169 72.1713 62.0511C71.9213 61.0853 71.5214 60.224 70.9664 59.4673M62.5575 62.7132C62.5725 62.4494 62.6324 62.1507 62.7324 61.8171C62.8274 61.4836 62.9974 61.1649 63.2324 60.8662C63.4723 60.5675 63.7873 60.3186 64.1873 60.1145C64.5822 59.9104 65.0822 59.8108 65.6821 59.8108C66.597 59.8108 67.2819 60.0548 67.7318 60.5476C68.1818 61.0405 68.4967 61.7624 68.6717 62.7132H62.5525H62.5575ZM49.939 53.2194C49.779 53.1148 49.619 53.0402 49.459 52.9904C49.299 52.9406 49.169 52.9107 49.0791 52.8908C48.7741 52.8161 48.5291 52.7514 48.3391 52.7016C48.1492 52.6518 48.0042 52.6021 47.8942 52.5523C47.7842 52.5025 47.7142 52.4477 47.6792 52.388C47.6442 52.3282 47.6242 52.2486 47.6242 52.154C47.6242 52.0494 47.6442 51.9648 47.6942 51.8951C47.7392 51.8254 47.7992 51.7707 47.8692 51.7259C47.9392 51.681 48.0192 51.6512 48.1042 51.6313C48.1892 51.6113 48.2792 51.6014 48.3641 51.6014C48.4941 51.6014 48.6191 51.6113 48.7291 51.6362C48.8391 51.6611 48.9391 51.696 49.0241 51.7507C49.1091 51.8055 49.1791 51.8802 49.234 51.9748C49.284 52.0694 49.319 52.1888 49.324 52.3332H50.3639C50.3639 52.0544 50.3089 51.8105 50.2039 51.6163C50.0989 51.4172 49.954 51.2579 49.769 51.1284C49.584 50.999 49.379 50.9094 49.1441 50.8496C48.9091 50.7949 48.6641 50.765 48.4091 50.765C48.1892 50.765 47.9692 50.7949 47.7492 50.8546C47.5292 50.9144 47.3343 51.004 47.1593 51.1284C46.9843 51.2529 46.8443 51.4023 46.7393 51.5865C46.6343 51.7707 46.5794 51.9847 46.5794 52.2336C46.5794 52.4577 46.6194 52.6469 46.7043 52.8012C46.7893 52.9555 46.8993 53.0899 47.0343 53.1945C47.1693 53.299 47.3243 53.3837 47.4992 53.4484C47.6742 53.5131 47.8492 53.5679 48.0342 53.6127C48.2092 53.6625 48.3891 53.7073 48.5591 53.7521C48.7341 53.7919 48.8891 53.8417 49.0241 53.8964C49.159 53.9512 49.269 54.0209 49.354 54.1006C49.439 54.1852 49.479 54.2897 49.479 54.4192C49.479 54.5436 49.449 54.6432 49.384 54.7229C49.319 54.8025 49.239 54.8672 49.1441 54.912C49.0491 54.9569 48.9441 54.9867 48.8341 55.0066C48.7241 55.0216 48.6241 55.0315 48.5241 55.0315C48.3841 55.0315 48.2442 55.0166 48.1142 54.9817C47.9792 54.9469 47.8642 54.8971 47.7692 54.8274C47.6692 54.7577 47.5892 54.6631 47.5342 54.5486C47.4743 54.4341 47.4443 54.2997 47.4443 54.1354H46.4044C46.3994 54.4341 46.4544 54.693 46.5694 54.912C46.6843 55.1311 46.8393 55.3103 47.0293 55.4497C47.2243 55.5891 47.4443 55.6937 47.6992 55.7584C47.9542 55.8231 48.2142 55.8579 48.4841 55.8579C48.8141 55.8579 49.1091 55.8181 49.364 55.7434C49.619 55.6638 49.829 55.5592 49.999 55.4198C50.1689 55.2804 50.2989 55.1162 50.3839 54.927C50.4689 54.7378 50.5139 54.5287 50.5139 54.3097C50.5139 54.0358 50.4539 53.8118 50.3389 53.6376C50.2239 53.4633 50.0839 53.3239 49.924 53.2194M37.5104 55.1311C37.7154 55.3601 37.9654 55.5343 38.2653 55.6688C38.5653 55.7982 38.9003 55.8629 39.2752 55.8629C39.5102 55.8629 39.7452 55.8131 39.9801 55.7185C40.2151 55.624 40.4251 55.4497 40.6151 55.2058L40.7251 55.7584H41.41V53.1298H39.3602V53.9263H40.4401C40.4051 54.2648 40.2951 54.5237 40.1001 54.7029C39.9052 54.8822 39.6302 54.9718 39.2752 54.9718C39.0353 54.9718 38.8303 54.927 38.6603 54.8324C38.4903 54.7378 38.3553 54.6133 38.2504 54.459C38.1454 54.3047 38.0704 54.1304 38.0204 53.9363C37.9704 53.7421 37.9504 53.543 37.9504 53.3389C37.9504 53.1347 37.9754 52.9207 38.0204 52.7215C38.0654 52.5224 38.1454 52.3432 38.2504 52.1839C38.3553 52.0295 38.4903 51.9051 38.6603 51.8105C38.8303 51.7159 39.0353 51.6711 39.2752 51.6711C39.5352 51.6711 39.7552 51.7408 39.9401 51.8752C40.1201 52.0146 40.2451 52.2187 40.3101 52.4875H41.335C41.305 52.2088 41.23 51.9648 41.11 51.7507C40.985 51.5367 40.83 51.3574 40.6401 51.2131C40.4501 51.0687 40.2401 50.9592 40.0051 50.8845C39.7702 50.8098 39.5302 50.775 39.2752 50.775C38.9003 50.775 38.5653 50.8397 38.2653 50.9741C37.9654 51.1085 37.7154 51.2878 37.5104 51.5168C37.3055 51.7507 37.1455 52.0196 37.0355 52.3282C36.9255 52.6369 36.8705 52.9754 36.8705 53.3389C36.8705 53.7023 36.9255 54.0209 37.0355 54.3296C37.1455 54.6333 37.3005 54.9021 37.5104 55.1311ZM34.9857 63.9379C34.5808 63.6492 34.1158 63.4152 33.5959 63.241C33.076 63.0667 32.541 62.9174 31.9911 62.7929C31.4612 62.6684 30.9412 62.5539 30.4263 62.4494C29.9163 62.3448 29.4614 62.2254 29.0614 62.0909C28.6615 61.9615 28.3415 61.7873 28.0916 61.5782C27.8466 61.3691 27.7216 61.0953 27.7216 60.7617C27.7216 60.4829 27.7916 60.2589 27.9316 60.0896C28.0716 59.9253 28.2465 59.7959 28.4465 59.7063C28.6515 59.6167 28.8765 59.5619 29.1214 59.537C29.3664 59.5121 29.5964 59.4972 29.8114 59.4972C30.4813 59.4972 31.0662 59.6266 31.5611 59.8805C32.0561 60.1344 32.3311 60.6223 32.381 61.3442H35.9556C35.8856 60.5028 35.6707 59.8009 35.3057 59.2483C34.9457 58.6956 34.4858 58.2526 33.9409 57.914C33.3959 57.5805 32.771 57.3415 32.0761 57.2021C31.3762 57.0627 30.6563 56.993 29.9163 56.993C29.1764 56.993 28.4515 57.0577 27.7416 57.1922C27.0367 57.3216 26.3968 57.5506 25.8368 57.8792C25.2719 58.2078 24.8169 58.6508 24.472 59.2134C24.127 59.776 23.9571 60.4978 23.9571 61.374C23.9571 61.9715 24.082 62.4793 24.327 62.8925C24.577 63.3057 24.9019 63.6492 25.3069 63.923C25.7118 64.1968 26.1768 64.4159 26.6967 64.5851C27.2167 64.7494 27.7516 64.8988 28.3015 65.0183C29.6414 65.302 30.6912 65.5808 31.4412 65.8596C32.1911 66.1434 32.566 66.5665 32.566 67.1241C32.566 67.4577 32.486 67.7365 32.3261 67.9555C32.1661 68.1746 31.9661 68.3488 31.7311 68.4832C31.4912 68.6177 31.2262 68.7122 30.9362 68.772C30.6463 68.8317 30.3663 68.8666 30.1013 68.8666C29.7314 68.8666 29.3714 68.8218 29.0314 68.7371C28.6865 68.6475 28.3815 68.5131 28.1166 68.3289C27.8516 68.1447 27.6366 67.9057 27.4666 67.617C27.3017 67.3282 27.2167 66.9797 27.2167 66.5765H23.6421C23.6771 67.4925 23.8821 68.2492 24.262 68.8566C24.642 69.464 25.1269 69.9519 25.7168 70.3203C26.3068 70.6887 26.9817 70.9525 27.7416 71.1118C28.5015 71.2712 29.2764 71.3508 30.0713 71.3508C30.8662 71.3508 31.6111 71.2761 32.3611 71.1268C33.111 70.9774 33.7759 70.7185 34.3608 70.3501C34.9407 69.9817 35.4157 69.4939 35.7756 68.8865C36.1356 68.2791 36.3206 67.5274 36.3206 66.6313C36.3206 65.999 36.1956 65.4663 35.9506 65.0332C35.7057 64.6001 35.3757 64.2416 34.9707 63.9529M59.1229 57.3714H56.5282V56.5549C56.5282 55.9924 56.6382 55.5941 56.8581 55.3551C57.0781 55.1162 57.4431 55.0017 57.958 55.0017C58.4329 55.0017 58.8929 55.0265 59.3328 55.0813V52.2834C59.0129 52.2685 58.6879 52.2436 58.353 52.2187C58.018 52.1938 57.683 52.1789 57.3481 52.1789C55.8133 52.1789 54.6634 52.5672 53.9035 53.3389C53.1436 54.1105 52.7636 55.1062 52.7636 56.3209V57.3764H50.5139V59.8805H52.7636V71.0123H56.5232V59.8805H59.1179V57.3764L59.1229 57.3714ZM43.1698 54.6781H44.9945L45.3645 55.7634H46.4794L44.6546 50.8994H43.5547L41.7099 55.7634H42.7898L43.1748 54.6781H43.1698ZM44.0847 52.0992H44.0997L44.7146 53.8865H43.4497L44.0847 52.0992ZM71.0314 55.0813C71.7964 55.0813 72.4363 54.4789 72.4363 53.6674C72.4363 52.856 71.7964 52.2735 71.0314 52.2735C70.2665 52.2735 69.6166 52.8759 69.6166 53.6674C69.6166 54.459 70.2615 55.0813 71.0314 55.0813ZM71.0314 52.4776C71.6814 52.4776 72.1813 52.9954 72.1813 53.6674C72.1813 54.3395 71.6814 54.8722 71.0314 54.8722C70.3815 54.8722 69.8716 54.3545 69.8716 53.6674C69.8716 52.9804 70.3715 52.4776 71.0314 52.4776ZM70.7415 53.7869H71.0114L71.4564 54.4939H71.7314L71.2614 53.767C71.5064 53.7421 71.6914 53.6177 71.6914 53.3189C71.6914 53.0053 71.5064 52.851 71.1164 52.851H70.4815V54.4939H70.7365V53.7869H70.7415ZM70.7415 53.0601H71.0764C71.2514 53.0601 71.4364 53.0949 71.4364 53.314C71.4364 53.5728 71.2314 53.5828 71.0064 53.5828H70.7415V53.0601Z" fill="#385E9D"></path></g></g></svg> 