<?xml version="1.0" encoding="UTF-8"?> <svg xmlns="http://www.w3.org/2000/svg" xmlns:xlink="http://www.w3.org/1999/xlink" width="204.132" height="27.036" preserveAspectRatio="xMidYMid meet" viewBox="0 0 204.132 27.036"><path d="M12.7.916H0v25.2h3.375l9.324-12.6z" fill="#ed6b06"></path><path d="M22.02.916h0l-9.32 12.6v.005 12.6h20.906V.921z" fill="#112557"></path><g fill="#fff"><use xlink:href="#B"></use><use xlink:href="#C"></use></g><path d="M12.7.916H0v25.2h3.375l9.324-12.6z" fill="#ff730f"></path><path d="M22.02.916h0l-9.32 12.6v.005 12.6h20.906V.921z" fill="#0e3173"></path><g fill="#fff"><use xlink:href="#B"></use><use xlink:href="#C"></use></g><path d="M62.239 26.117L47.233 10.093v16.024h-6.73V.912h6.286l14.52 15.517V.912h6.73v25.205zm136.091 0l-15-16.024v16.024h-6.729V.912h6.286l14.52 15.518V.912h6.73v25.205zm-79.895 0h-5.7L100.883.912h7.12l7.663 17.625L123.33.912h6.953zM132.991.912h6.759v25.205h-6.759zM79.464 8.53h-6.8a10.66 10.66 0 0 1 3.112-5.7C78.307.639 81.514.002 86.007.002c4.582 0 8.18.67 10.717 2.828a9.28 9.28 0 0 1 3.493 7.144v16.145h-6.759v-2.3a20.58 20.58 0 0 1-4.014 2.115c-2.286.818-4.708 1.191-7.134 1.1a11.42 11.42 0 0 1-7.178-2.457 7.51 7.51 0 0 1-3.033-6.081c0-2.878.583-4.88 3.45-6.227 2.621-1.231 5.777-1.455 9.878-1.455h8.031c0-3.207-1.938-6.55-7.318-6.55-2.902-.13-5.572 1.577-6.672 4.265m6.43 6.353c-3.918.063-7.175.986-7.034 3.287.2 3.28 3.546 3.586 4.972 3.586 3.584 0 6.215-.647 7.712-1.847 1.614-1.3 1.677-3.127 1.691-5.026 0 0-5.66-.027-7.341 0m72.262 7.534c-4.641 0-7.456-2.664-7.817-6.2l-.092-1.134h22.628c0-4.612-1.218-8.235-3.6-10.815-2.611-2.877-6.381-4.266-11.312-4.266-4.467 0-8.006 1.29-10.558 3.919a12.71 12.71 0 0 0-3.945 9.575c0 4.266 1.393 7.59 4.177 10.021 2.611 2.331 6.149 3.522 10.616 3.522 3.554.124 7.054-.902 9.978-2.927a11.47 11.47 0 0 0 4.176-6h-6.762c-1.025 2.554-3.722 4.309-7.49 4.309m0-17.8c4.64 0 7.455 2.663 7.817 6.2h-15.634c.362-3.539 3.177-6.2 7.817-6.2" fill="#0e3173"></path><defs><path id="B" d="M16.814 11.525h1.033l-.006 5.467 5.263-5.46h1.334l-3.928 4 4.088 5.158h-1.295l-3.514-4.438-1.95 1.973v2.458h-1.033z"></path><path id="C" d="M31.157 17.625a4.29 4.29 0 0 0-1-1.446 4.66 4.66 0 0 0-1.542-.963c-.629-.237-1.297-.355-1.969-.348h-3.178v2.362l1.034 1.374v-2.781h2.144a4.21 4.21 0 0 1 1.57.284 3.48 3.48 0 0 1 1.2.773c.327.329.585.72.757 1.151.18.452.27.934.266 1.42v.026c.003.486-.088.967-.27 1.418a3.37 3.37 0 0 1-.76 1.144 3.48 3.48 0 0 1-1.2.757 4.32 4.32 0 0 1-1.57.273h-2.144v-.991h-1.033v1.945h3.178c.672.008 1.34-.111 1.968-.351.573-.218 1.097-.547 1.544-.966.431-.408.771-.902 1-1.45a4.6 4.6 0 0 0 .355-1.8v-.026c.006-.618-.113-1.23-.351-1.8"></path></defs></svg> 