<?xml version="1.0" encoding="UTF-8"?> <svg xmlns="http://www.w3.org/2000/svg" width="142" height="57" viewBox="0 0 142 57" fill="none"><path d="M71.3921 29.6702C71.3921 31.2375 71.6252 31.7429 72.3395 31.7429C73.0539 31.7429 73.287 31.2375 73.287 29.6702C73.287 28.1029 73.0267 27.5975 72.3395 27.5975C71.6524 27.5975 71.3921 28.13 71.3921 29.6702Z" fill="#385E9D"></path><path d="M114.972 27.5945C114.257 27.5945 114.024 28.127 114.024 29.6672C114.024 31.2074 114.257 31.7399 114.972 31.7399C115.686 31.7399 115.919 31.2345 115.919 29.6672C115.919 28.0999 115.659 27.5945 114.972 27.5945Z" fill="#385E9D"></path><path d="M114.494 38.1564H113.195V41.4324H114.533C115.962 41.4324 116.655 40.8939 116.655 39.7869C116.655 38.6799 115.947 38.1564 114.491 38.1564" fill="#385E9D"></path><path d="M65.1594 38.1564H63.8608V41.4324H65.1988C66.6275 41.4324 67.3207 40.8939 67.3207 39.7869C67.3207 38.6799 66.6124 38.1564 65.1564 38.1564" fill="#385E9D"></path><path d="M65.5165 29.3694C66.1341 29.3694 66.4791 29.0685 66.4791 28.4007C66.4791 27.772 66.1219 27.4742 65.5165 27.4742C64.9111 27.4742 64.5691 27.775 64.5691 28.4007C64.5691 29.0685 64.9263 29.3694 65.5165 29.3694Z" fill="#385E9D"></path><path d="M80.2582 29.6702C80.2582 28.13 79.9979 27.5975 79.3107 27.5975C78.6236 27.5975 78.3633 28.13 78.3633 29.6702C78.3633 31.2104 78.5964 31.7429 79.3107 31.7429C80.0251 31.7429 80.2582 31.2375 80.2582 29.6702Z" fill="#385E9D"></path><path d="M78.5146 14.0003C77.1434 14.0003 76.2231 14.9539 76.2231 16.8792C76.2231 18.8045 77.1434 19.7851 78.5146 19.7851C79.8858 19.7851 80.806 18.8436 80.806 16.9063C80.806 14.969 79.8858 14.0003 78.5146 14.0003Z" fill="#385E9D"></path><path d="M108.001 27.5945C107.286 27.5945 107.053 28.127 107.053 29.6672C107.053 31.2074 107.286 31.7399 108.001 31.7399C108.715 31.7399 108.948 31.2345 108.948 29.6672C108.948 28.0999 108.688 27.5945 108.001 27.5945Z" fill="#385E9D"></path><path d="M28.2207 0C44.0338 0 56.8986 12.785 56.8986 28.5C56.8986 44.215 44.0338 57 28.2207 57H142V0H28.2207ZM136.554 51.6995H60.9184V51.2453H136.554V51.6995ZM65.5589 25.6993C67.1359 25.6993 68.5102 26.5326 68.5102 28.4699C68.5102 30.0252 67.7413 30.9788 67.0814 31.8391L65.7223 33.4907H63.4702L65.9009 30.5456L65.8464 30.5035C65.7102 30.6118 65.4196 30.7502 64.899 30.7502C63.4975 30.7502 62.6196 29.7424 62.6196 28.3767C62.6196 26.671 63.897 25.7023 65.5558 25.7023M62.9072 12.1202H65.1048V21.6683H62.9072V12.1202ZM69.0278 17.7395C67.8321 17.3425 66.3519 16.7318 66.3519 14.7253C66.3519 12.9234 67.6021 11.9276 69.6998 11.9276C71.4857 11.9276 72.8418 12.6496 73.2687 14.4245L71.1679 14.996C70.9772 14.2319 70.508 13.892 69.6847 13.892C68.9309 13.892 68.601 14.1778 68.601 14.6982C68.601 15.4623 69.3699 15.6248 70.6049 15.9948C71.8944 16.3768 73.2959 16.9755 73.2959 18.982C73.2959 20.9884 72.0336 21.8608 69.8633 21.8608C68.2166 21.8608 66.5547 21.2742 66.131 19.2677L68.2317 18.7082C68.3831 19.4452 68.9188 19.8965 69.839 19.8965C70.5928 19.8965 71.0589 19.6107 71.0589 19.009C71.0589 18.1487 70.0994 18.0945 69.0278 17.7395ZM85.0044 28.1992C85.0044 28.1992 84.744 28.5391 84.5503 28.6895L84.2204 28.9753L83.0398 27.4892L85.0861 25.8528H87.0779V33.4907H85.0044V29.8627C85.0044 29.222 85.0588 28.1992 85.0588 28.1992H85.0044ZM84.181 39.6816L84.2264 39.811L83.621 39.9734L83.5786 39.8621C83.3758 39.3086 82.7099 38.0241 80.9421 38.0241C79.1743 38.0241 77.9696 39.3778 77.9696 41.4685C77.9696 43.5592 79.1471 44.9821 80.9694 44.9821C82.4829 44.9821 83.4212 44.0586 83.6937 43.4208V42.1995H81.4416V41.5858H84.3233V45.4454H83.6937V45.316C83.6937 44.955 83.6967 44.6422 83.7027 44.3985C83.2699 44.8979 82.4102 45.5958 80.9815 45.5958C78.802 45.5958 77.337 43.9383 77.337 41.4715C77.337 39.0047 78.7748 37.4134 80.9118 37.4134C81.6625 37.4134 83.4848 37.633 84.178 39.6846M76.2866 29.6762C76.2866 26.9207 77.4247 25.7054 79.3075 25.7054C81.1903 25.7054 82.3285 26.9207 82.3285 29.6762C82.3285 32.4318 81.1903 33.6441 79.3075 33.6441C77.4247 33.6441 76.2866 32.4288 76.2866 29.6762ZM78.5114 21.8638C75.8355 21.8638 74.0103 20.0769 74.0103 16.9003C74.0103 13.7236 75.8355 11.9337 78.5114 11.9337C81.1873 11.9337 83.0277 13.7206 83.0277 16.9003C83.0277 20.08 81.1873 21.8638 78.5114 21.8638ZM74.5793 41.0142V41.6249H71.286V44.8317H75.4602V45.4454H70.6715V37.5488H75.3906V38.1624H71.286V41.0142H74.5793ZM75.3573 29.6762C75.3573 32.4318 74.2191 33.6441 72.3363 33.6441C70.4535 33.6441 69.3154 32.4288 69.3154 29.6762C69.3154 26.9237 70.4535 25.7054 72.3363 25.7054C74.2191 25.7054 75.3573 26.9207 75.3573 29.6762ZM68.1227 45.4484H67.4144L65.5225 42.031C65.1986 42.0521 64.9262 42.0521 64.7597 42.0521H63.8607V45.4484H63.2311V37.5518H65.1865C66.9452 37.5518 67.9502 38.361 67.9502 39.7688C67.9502 40.918 67.3085 41.7031 66.1824 41.9498L68.1227 45.4514V45.4484ZM87.1687 37.5518H87.7983V45.4484H87.1687V37.5518ZM92.7686 41.664L92.5749 41.6099L92.5174 41.5918C91.6396 41.3151 90.4378 40.936 90.4378 39.4409C90.4378 38.1745 91.3369 37.4164 92.8473 37.4164C94.27 37.4164 95.1721 38.0933 95.39 39.3236L95.4082 39.4349L94.8028 39.6184L94.7755 39.477C94.5788 38.4753 93.9915 38.0271 92.8716 38.0271C92.0482 38.0271 91.0644 38.2707 91.0644 39.4259C91.0644 40.4577 91.8605 40.7585 92.9866 41.0744L93.1198 41.1135C94.043 41.3933 95.4415 41.8174 95.4415 43.4599C95.4415 44.7956 94.5092 45.5958 92.9503 45.5958C92.0512 45.5958 90.5014 45.3281 90.2562 43.5351L90.2411 43.4269L90.8404 43.2373L90.8556 43.3968C90.9524 44.4075 91.7183 44.9851 92.9503 44.9851C94.1823 44.9851 94.8119 44.4436 94.8119 43.4629C94.8119 42.2386 93.819 41.9588 92.7656 41.664M92.9503 31.4631C93.6767 31.4631 94.0884 31.9143 94.0884 32.5401C94.0884 33.1658 93.6889 33.632 92.9503 33.632C92.2117 33.632 91.797 33.1537 91.797 32.5401C91.797 31.9264 92.1965 31.4631 92.9503 31.4631ZM91.797 28.0788C91.797 27.4652 92.1965 27.0019 92.9503 27.0019C93.704 27.0019 94.0884 27.4531 94.0884 28.0788C94.0884 28.7046 93.6889 29.1708 92.9503 29.1708C92.2117 29.1708 91.797 28.7076 91.797 28.0788ZM100.83 31.6797C100.981 31.6647 101.42 31.6376 101.913 31.6376H104.081V33.4937H98.5502V31.1894L100.857 29.5378C101.556 29.0204 101.968 28.6775 101.968 28.145C101.968 27.778 101.735 27.4622 101.172 27.4622C100.678 27.4622 100.418 27.763 100.336 28.1841L98.3989 27.6667C98.7288 26.1927 99.8942 25.7023 101.311 25.7023C103.054 25.7023 104.068 26.5085 104.068 28.0217C104.068 29.3724 103.23 30.0402 102.201 30.696L100.814 31.6105L100.827 31.6797H100.83ZM102.661 37.5488V38.1624H100.094V45.4484H99.4644V38.1624H96.8975V37.5488H102.661ZM109.03 41.0142V41.6249H105.736V44.8317H109.911V45.4454H105.122V37.5488H109.841V38.1624H105.736V41.0142H109.03ZM107.994 33.6441C106.115 33.6441 104.974 32.4288 104.974 29.6762C104.974 26.9237 106.115 25.7054 107.994 25.7054C109.874 25.7054 111.015 26.9207 111.015 29.6762C111.015 32.4318 109.874 33.6441 107.994 33.6441ZM117.451 45.4454H116.743L114.851 42.028C114.527 42.0491 114.254 42.0491 114.088 42.0491H113.189V45.4454H112.559V37.5488H114.515C116.273 37.5488 117.278 38.358 117.278 39.7658C117.278 40.915 116.637 41.7001 115.511 41.9468L117.451 45.4484V45.4454ZM114.966 33.6441C113.086 33.6441 111.948 32.4288 111.948 29.6762C111.948 26.9237 113.086 25.7054 114.966 25.7054C116.845 25.7054 117.987 26.9207 117.987 29.6762C117.987 32.4318 116.848 33.6441 114.966 33.6441ZM119.152 27.7509C119.152 26.5928 120.127 25.7054 121.746 25.7054C123.366 25.7054 124.355 26.5777 124.355 27.7509C124.355 28.8159 123.641 29.3062 123.272 29.4145V29.4566C123.847 29.6491 124.67 30.1666 124.67 31.406C124.67 32.6453 123.723 33.6561 121.773 33.6561C119.824 33.6561 118.849 32.7145 118.849 31.406C118.849 30.2057 119.618 29.6461 120.236 29.4566V29.4145C119.879 29.3062 119.152 28.8159 119.152 27.7509ZM123.907 41.0142V41.6249H120.614V44.8317H124.788V45.4454H120V37.5488H124.719V38.1624H120.614V41.0142H123.907ZM127.437 45.4454V37.5488H129.598C132.035 37.5488 133.488 39.0408 133.488 41.5377C133.488 44.0345 132.074 45.4454 129.707 45.4454H127.437ZM136.548 5.75174H60.9124V5.2975H136.548V5.75174Z" fill="#385E9D"></path><path d="M129.604 38.1564H128.073V44.8287H129.713C131.687 44.8287 132.865 43.6013 132.865 41.5467C132.865 39.4921 131.675 38.1564 129.604 38.1564Z" fill="#385E9D"></path><path d="M121.752 32.0828C122.328 32.0828 122.7 31.782 122.7 31.2224C122.7 30.6629 122.315 30.3771 121.752 30.3771C121.189 30.3771 120.82 30.69 120.82 31.2224C120.82 31.8091 121.22 32.0828 121.752 32.0828Z" fill="#385E9D"></path><path d="M121.752 28.6173C122.261 28.6173 122.576 28.3586 122.576 27.8803C122.576 27.3629 122.234 27.1433 121.752 27.1433C121.271 27.1433 120.941 27.3749 120.941 27.8803C120.941 28.3586 121.256 28.6173 121.752 28.6173Z" fill="#385E9D"></path><path d="M47.957 22.4053L47.8873 22.2278C46.9974 22.7844 46.3405 23.4763 46.059 23.8342L45.3477 23.2717L45.0359 23.5244L46.2649 24.7999C46.4707 24.2434 47.1427 23.1815 47.957 22.4053Z" fill="#385E9D"></path><path d="M13.7123 26.2468C11.7236 26.2468 10.1011 27.8592 10.1011 29.8356C10.1011 31.8121 11.7236 33.4245 13.7123 33.4245C14.2935 33.4245 14.8444 33.2891 15.3287 33.0484L14.2027 31.8121L15.8312 30.3982L16.8664 31.5774C17.157 31.063 17.3235 30.4674 17.3235 29.8356C17.3235 27.8592 15.701 26.2468 13.7123 26.2468Z" fill="#385E9D"></path><path d="M56.4416 28.5C56.4416 13.0347 43.7826 0.454254 28.2208 0.454254C12.659 0.454254 0 13.0347 0 28.5C0 43.9653 12.659 56.5458 28.2208 56.5458C43.7826 56.5458 56.4416 43.9653 56.4416 28.5ZM46.404 20.9132H46.507C47.854 20.9343 48.9316 22.0263 48.9376 23.371V23.392C48.9316 24.7518 47.8177 25.8498 46.4525 25.8498C45.0873 25.8498 43.9734 24.7457 43.9734 23.386C43.9734 22.0263 45.057 20.9493 46.404 20.9163M39.2845 31.2495C37.1505 30.8164 35.0437 30.1846 35.0437 27.5795C35.0437 26.4695 35.4796 25.4858 36.3423 24.7788C37.2201 24.0448 38.2553 23.8042 39.3541 23.8042C41.4609 23.8042 43.1712 24.5382 43.9037 26.6048L41.5366 27.393C41.1855 26.3852 40.5347 25.9791 39.4722 25.9791C38.7185 25.9791 37.8073 26.1716 37.8073 27.0922C37.8073 27.9645 38.8577 28.1691 39.5418 28.2924C40.5226 28.497 41.8423 28.7467 42.6778 29.3002C43.6585 29.9379 44.2518 30.9337 44.2518 32.1189C44.2518 33.3042 43.6918 34.4052 42.7595 35.1091C41.8 35.8582 40.4802 36.0838 39.2724 36.0838C37.0143 36.0838 34.965 35.1091 34.4201 32.7687L37.0173 32.1731C37.3684 33.4215 38.2735 33.8607 39.5237 33.8607C40.3319 33.8607 41.3943 33.5659 41.3943 32.5702C41.3943 31.5744 40.0261 31.3969 39.2875 31.2465M20.6593 35.9183L20.6533 35.9123H17.9592L17.1026 34.9797C16.1279 35.6175 14.9625 35.9875 13.7063 35.9875C10.2827 35.9875 7.50698 33.229 7.50698 29.8266C7.50698 26.4243 10.2827 23.6658 13.7154 23.6568C17.1389 23.6568 19.9147 26.4153 19.9147 29.8176C19.9147 31.2375 19.4304 32.5341 18.6222 33.5779L20.6533 35.9123H20.6593V35.9183ZM26.1685 35.9183L23.2414 26.1897H23.2081V35.9183H20.841V23.9786H25.2392L27.346 31.1352L29.5497 23.9786H33.9479V35.9183H31.1449V26.1897H31.0753L28.0997 35.9183H26.1745H26.1685Z" fill="#385E9D"></path></svg> 