<?xml version="1.0" encoding="UTF-8"?> <svg xmlns="http://www.w3.org/2000/svg" width="96" height="96" viewBox="0 0 96 96" fill="none"><path d="M63.9095 14.9546L63.4941 14.3048C63.7244 14.3048 63.8725 14.1362 63.8725 13.8976C63.8725 13.6179 63.708 13.4863 63.3707 13.4863H62.8072V14.9546H63.0458V14.3048H63.2473L63.6586 14.9546H63.9136H63.9095ZM63.0458 14.1197V13.6755H63.3296C63.4818 13.6755 63.6298 13.7249 63.6298 13.8894C63.6298 14.0786 63.5105 14.1197 63.3296 14.1197H63.0458ZM92.9563 51.605C92.9563 51.605 92.9563 51.568 92.9563 51.5515C92.9563 51.568 92.9563 51.5885 92.9563 51.605ZM30.1656 59.1111C29.3553 59.1111 28.944 59.6746 28.8781 60.419H31.3419C31.2967 59.7157 30.9758 59.1111 30.1614 59.1111M38.3835 32.5045C34.7928 33.796 31.564 40.3438 31.564 40.3438C35.562 42.6388 34.8175 45.5014 34.8175 45.5014C34.8175 45.5014 37.5157 44.2922 40.4401 47.8581C40.4401 47.8581 46.326 43.6177 47.0375 39.8749C47.1568 43.6876 52.3846 48.7835 52.3846 48.7835C55.8026 45.6906 58.2951 47.2823 58.2951 47.2823C58.2951 47.2823 57.9825 44.3415 62.2766 42.6594C62.2766 42.6594 60.0596 35.7496 56.7198 33.9153C60.3805 34.9846 66.8504 31.5832 66.8504 31.5832C64.9666 27.3757 67.2494 25.5002 67.2494 25.5002C67.2494 25.5002 64.3537 24.8915 64.0823 20.2891C64.0823 20.2891 56.8267 20.2603 54.0504 22.872C56.1974 19.7174 54.9594 12.5198 54.9594 12.5198C50.3774 13.0133 49.2956 10.2618 49.2956 10.2618C49.2956 10.2618 47.8231 12.8241 43.3604 11.6602C43.3604 11.6602 41.0941 18.5493 42.7147 21.996C40.3784 18.9812 33.1517 17.9324 33.1517 17.9324C32.2057 22.4443 29.2524 22.6211 29.2524 22.6211C29.2524 22.6211 31.235 24.8174 28.7506 28.7001C28.7506 28.7001 34.6036 32.9857 38.3835 32.5086M45.8365 39.4924C45.7625 39.9777 45.5445 40.5494 45.2031 41.1458C44.8658 41.7422 44.4134 42.3632 43.9116 42.9555C43.0067 44.029 41.9332 45.0161 41.1023 45.7276C40.8843 45.9127 40.6787 46.0813 40.4977 46.2253C40.3126 46.0443 40.1275 45.8716 39.9424 45.7153C39.2596 45.1353 38.581 44.7405 37.9393 44.4855C40.2098 42.8115 43.7512 39.5253 44.9028 34.6967C45.1085 35.6386 45.4046 36.9424 45.8159 38.6328C45.8776 38.8878 45.8859 39.1716 45.8365 39.4965M57.3573 36.0622C57.8221 36.5681 58.2704 37.1892 58.6776 37.8513C59.418 39.0441 60.0267 40.3685 60.4422 41.3802C60.5532 41.6476 60.6478 41.8902 60.7301 42.1082C60.4997 42.2275 60.2817 42.3509 60.0761 42.4784C59.3152 42.9514 58.727 43.4737 58.2869 44.0043C57.3985 41.3268 55.3625 36.9424 51.126 34.3595C52.0884 34.454 53.417 34.5733 55.1527 34.7049C55.4159 34.7255 55.6874 34.8036 55.9794 34.9517C56.4154 35.1697 56.8925 35.5563 57.3573 36.0622ZM54.3013 24.6077C54.4 24.365 54.5604 24.1306 54.7907 23.9003C55.1362 23.5507 55.6504 23.2175 56.2715 22.9337C56.8967 22.6499 57.6247 22.4155 58.3815 22.2304C59.747 21.8973 61.1907 21.7245 62.2848 21.6423C62.5728 21.6217 62.836 21.6052 63.0663 21.5929C63.1075 21.852 63.1568 22.0947 63.2144 22.3291C63.4283 23.1969 63.745 23.9167 64.1152 24.5007C61.2936 24.5213 56.4977 25.0971 52.726 28.3299C53.1126 27.4456 53.6391 26.2158 54.3013 24.6077ZM43.4344 17.6815C43.5373 16.279 43.8211 14.8518 44.0802 13.7866C44.146 13.5069 44.2159 13.2519 44.2735 13.0298C44.5326 13.0709 44.7794 13.0956 45.0221 13.1161C45.9147 13.182 46.6961 13.1038 47.3666 12.9311C46.5152 15.6209 45.5815 20.3631 47.49 24.9449C46.7661 24.3033 45.7625 23.4232 44.438 22.2962C44.2365 22.1235 44.0638 21.9014 43.9157 21.6094C43.6895 21.1734 43.5332 20.5811 43.455 19.9025C43.3769 19.2197 43.381 18.4547 43.4386 17.6774M43.3563 23.2669C43.3111 23.0818 43.2494 22.9049 43.1712 22.7322C43.2987 22.8926 43.4344 23.0365 43.5907 23.1682C46.7249 25.8292 48.0535 27.1001 48.0535 27.1001C48.0535 27.1001 49.5548 26.039 53.0468 23.8674C53.2072 23.7686 53.3594 23.6535 53.4992 23.526C53.3882 23.6946 53.2895 23.8715 53.2113 24.0607C51.6483 27.8651 50.8504 29.5226 50.8504 29.5226C50.8504 29.5226 52.3229 30.6249 55.4653 33.2736C55.6093 33.397 55.7656 33.504 55.9342 33.5986C55.7368 33.5451 55.5393 33.5081 55.3378 33.4916C51.237 33.179 49.4149 32.9323 49.4149 32.9323C49.4149 32.9323 48.8226 34.672 47.272 38.4806C47.2021 38.6575 47.1486 38.8384 47.1075 39.0235C47.0992 38.822 47.0746 38.6205 47.0252 38.423C46.0545 34.4294 45.7254 32.6197 45.7254 32.6197C45.7254 32.6197 43.8869 32.595 39.7861 32.2989C39.5969 32.2865 39.4077 32.2906 39.2226 32.3112C39.4118 32.2413 39.5969 32.1549 39.7656 32.048C43.2658 29.8887 44.8823 29.0168 44.8823 29.0168C44.8823 29.0168 44.3393 27.2605 43.3522 23.2669M30.6427 27.569C30.9841 26.7423 31.1486 25.9732 31.1897 25.2822C33.4848 26.9233 37.7049 29.2759 42.653 28.8769C41.818 29.3664 40.6704 30.0491 39.1938 30.9622C38.9676 31.102 38.7044 31.1966 38.3794 31.2501C37.8982 31.3282 37.2853 31.2994 36.6108 31.1596C35.9404 31.0239 35.2082 30.7853 34.4925 30.4892C33.1928 29.9586 31.9219 29.2471 30.9882 28.6713C30.7455 28.5191 30.5234 28.3792 30.3301 28.2517C30.4494 28.0214 30.5522 27.7911 30.6427 27.5649M19.2 62.1423C19.2 62.6194 19.599 62.8251 20.1172 62.8251C20.5614 62.8251 20.9069 62.6318 21.1332 62.3274C21.3717 62.0148 21.4375 61.6159 21.4375 61.1799H20.8082C20.1584 61.1799 19.1959 61.2868 19.1959 62.1423M81.9455 14.058C72.8802 4.9931 60.8247 0 48 0C35.1753 0 23.128 4.9931 14.0586 14.058C4.99332 23.127 0 35.1779 0 47.9979C0 60.818 4.99332 72.873 14.0586 81.942C23.1239 91.0069 35.1794 96 48 96C60.8206 96 72.8761 91.0069 81.9414 81.942C91.0067 72.8771 96 60.8221 96 47.9979C96 35.1738 91.0067 23.1229 81.9414 14.058M80.7404 80.7369C71.9959 89.481 60.3681 94.2972 48 94.2972C35.6319 94.2972 24.0041 89.481 15.2596 80.7369C6.51517 71.9969 1.69871 60.3696 1.69871 47.9979C1.69871 35.6262 6.51517 24.0072 15.2596 15.259C24.0041 6.51489 35.636 1.69864 48 1.69864C60.364 1.69864 71.9959 6.51489 80.7404 15.259C89.4848 24.0031 94.3013 35.6303 94.3013 47.9979C94.3013 60.3655 89.4848 71.9928 80.7404 80.7369ZM64.5347 14.2184C64.5347 13.5274 63.9712 12.964 63.2802 12.964C62.5892 12.964 62.0257 13.5274 62.0257 14.2184C62.0257 14.9094 62.5892 15.4729 63.2802 15.4729C63.9712 15.4729 64.5347 14.9094 64.5347 14.2184ZM62.2684 14.2184C62.2684 13.6179 62.7044 13.1532 63.2843 13.1532C63.8643 13.1532 64.2962 13.6179 64.2962 14.2184C64.2962 14.8189 63.8602 15.2837 63.2843 15.2837C62.7085 15.2837 62.2684 14.8189 62.2684 14.2184ZM41.1558 75.2708C41.1558 74.7485 40.7815 74.5798 40.3085 74.5798H39.9548V75.9782H40.3085C40.7774 75.9782 41.1558 75.8096 41.1558 75.2708ZM48 2.90784C23.0951 2.90784 2.90797 23.0982 2.90797 48.0021C2.90797 48.8411 2.93265 49.676 2.97789 50.5068H7.09512C7.04576 49.6801 7.01697 48.8452 7.01697 48.0021C7.01697 25.3686 25.3656 7.02078 48 7.02078C70.6344 7.02078 88.983 25.3686 88.983 48.0021C88.983 48.8452 88.9542 49.6801 88.9049 50.5068H93.0221C93.0674 49.676 93.092 48.8411 93.092 48.0021C93.092 23.0982 72.9008 2.90784 47.9959 2.90784M87.2514 70.2078C87.2802 70.1543 87.309 70.105 87.3378 70.0515C87.309 70.105 87.2802 70.1543 87.2473 70.2078H87.2514ZM77.2195 59.1728C76.2776 59.1728 75.8252 59.9954 75.8252 60.8262C75.8252 61.7475 76.1172 62.751 77.2195 62.751C78.3219 62.751 78.6262 61.7557 78.6262 60.8262C78.6262 59.9707 78.1738 59.1728 77.2195 59.1728ZM36.837 75.2749C36.837 74.7526 36.4627 74.5839 35.9897 74.5839H35.636V75.9823H35.9897C36.4627 75.9823 36.837 75.8137 36.837 75.2749ZM8.74036 70.2078L8.65399 70.0515C8.68278 70.1009 8.71157 70.1543 8.74036 70.2078ZM45.6596 75.1474C45.6596 74.6703 45.1825 74.5798 44.6602 74.5798H44.2982V75.7438H44.6602C45.1003 75.7438 45.6596 75.7273 45.6596 75.1474ZM61.4869 62.1341C61.4869 62.6112 61.8859 62.8168 62.4041 62.8168C62.8483 62.8168 63.1938 62.6235 63.4201 62.3192C63.6586 62.0066 63.7244 61.6076 63.7244 61.1717H63.0992C62.4494 61.1717 61.4869 61.2786 61.4869 62.1341ZM50.0771 77.8167C50.908 77.8167 51.2411 77.0229 51.2411 76.1757C51.2411 75.2873 50.908 74.5346 50.0771 74.5346C49.2463 74.5346 48.9131 75.2873 48.9131 76.1757C48.9131 77.064 49.2463 77.8167 50.0771 77.8167ZM42.472 59.1687C41.5301 59.1687 41.0776 59.9913 41.0776 60.8221C41.0776 61.7434 41.3697 62.7469 42.472 62.7469C43.5743 62.7469 43.8787 61.7516 43.8787 60.8221C43.8787 59.9666 43.4262 59.1687 42.472 59.1687ZM47.9959 93.0921C64.8267 93.0921 79.4982 83.871 87.2473 70.2037H8.74859C16.4977 83.8668 31.1692 93.0921 48 93.0921M62.6098 73.6092H64.4771C66.2663 73.6092 67.5167 74.1685 67.5167 76.1551C67.5167 78.1416 66.2293 78.7462 64.4771 78.7462H62.6098V73.6092ZM58.2622 73.6092H61.8817V74.5798H59.6319V75.641H61.7584V76.6116H59.6319V77.7756H61.964V78.7462H58.2622V73.6092ZM54.1121 73.6092L55.2514 77.6399H55.2679L56.4154 73.6092H57.8221L56.0699 78.7462H54.3794L52.656 73.6092H54.1121ZM50.0853 73.5228C51.7758 73.5228 52.6602 74.5305 52.6602 76.1798C52.6602 77.8291 51.7635 78.8367 50.0853 78.8367C48.4072 78.8367 47.5105 77.8126 47.5105 76.1798C47.5105 74.5469 48.3949 73.5228 50.0853 73.5228ZM42.9409 73.6092H45.3841C46.2972 73.6092 47.0416 74.0205 47.0416 74.9048C47.0416 75.5875 46.7167 76.044 46.0545 76.2003V76.2127C46.4946 76.3319 46.5275 76.7227 46.7825 77.3478L47.2843 78.7462H45.8571L45.5609 77.8208C45.2812 76.9365 45.1044 76.7186 44.5985 76.7186H44.3105V78.7504H42.9409V73.6133V73.6092ZM38.5933 73.6092H40.2262C41.7933 73.6092 42.5296 74.1398 42.5296 75.2955C42.5296 76.3319 41.7728 76.953 40.4895 76.953H39.9589V78.7504H38.5892V73.6133L38.5933 73.6092ZM34.2828 73.6092H35.9157C37.4828 73.6092 38.219 74.1398 38.219 75.2955C38.219 76.3319 37.4622 76.953 36.1789 76.953H35.6483V78.7504H34.2787V73.6133L34.2828 73.6092ZM30.3465 73.6092H32.0247L34.0031 78.7462H32.5018L32.1193 77.6481H30.1902L29.7871 78.7462H28.3969L30.3465 73.6092ZM31.1856 74.6703H31.1733L30.5111 76.6774H31.7985L31.1856 74.6703ZM66.1141 76.1798C66.1141 75.1556 65.5177 74.6292 64.5182 74.6292H63.9877V77.7345H64.5182C65.5424 77.7345 66.1141 77.2039 66.1141 76.1839M7.17738 51.6009H3.05193C3.02314 51.2389 2.99846 50.8729 2.97789 50.5068C2.99846 50.8729 3.02314 51.2348 3.05193 51.6009C3.54961 57.8895 5.33882 63.8122 8.14807 69.1137H87.856C88.0165 68.8135 88.1686 68.5133 88.3208 68.2089C88.3496 68.1554 88.3743 68.102 88.4031 68.0485C88.547 67.7565 88.691 67.4603 88.8308 67.1683C88.8555 67.1107 88.8843 67.0573 88.909 66.9997C89.053 66.6953 89.1928 66.3869 89.3285 66.0743C89.3326 66.0619 89.3368 66.0537 89.3409 66.0414C89.4766 65.7329 89.6041 65.4244 89.7316 65.116C89.7522 65.0666 89.7728 65.0214 89.7892 64.9761C89.9167 64.6677 90.036 64.3551 90.1553 64.0425C90.1758 63.989 90.1964 63.9356 90.217 63.8821C90.3363 63.5613 90.4555 63.2364 90.5707 62.9114C90.5748 62.8991 90.5789 62.8868 90.583 62.8703C90.6982 62.5454 90.8092 62.2164 90.9162 61.8832C90.9285 61.8503 90.9368 61.8174 90.9491 61.7845C91.056 61.4555 91.1589 61.1223 91.2576 60.7892C91.2699 60.7439 91.2823 60.6987 91.2987 60.6534C91.3974 60.3121 91.4961 59.9707 91.5866 59.6252C91.5866 59.617 91.5907 59.6088 91.5907 59.6005C91.6853 59.2427 91.7758 58.8849 91.8622 58.5229C91.8622 58.5106 91.8663 58.5024 91.8704 58.49C91.9527 58.1363 92.035 57.7785 92.1131 57.4207C92.1213 57.3878 92.1255 57.359 92.1337 57.3261C92.3681 56.2156 92.5614 55.0928 92.7095 53.9535C92.7095 53.9411 92.7095 53.9247 92.7136 53.9123C92.8165 53.1432 92.8946 52.37 92.9563 51.5926H7.17738V51.6009ZM14.3712 63.8739C13.5486 63.8739 13.1825 63.7669 12.4339 63.5818L12.5738 62.2205C13.092 62.5001 13.6884 62.6852 14.2807 62.6852C14.873 62.6852 15.6216 62.3932 15.6216 61.7105C15.6216 60.275 12.3147 60.8673 12.3147 58.3708C12.3147 56.6845 13.6226 56.0675 14.9553 56.0675C15.6051 56.0675 16.2098 56.1539 16.7609 56.339L16.6211 57.5811C16.144 57.3754 15.6175 57.2562 15.0869 57.2562C14.5563 57.2562 13.8982 57.4824 13.8982 58.305C13.8982 59.6129 17.2051 59.0617 17.2051 61.5912C17.2051 63.2446 15.8972 63.8739 14.3712 63.8739ZM21.5733 63.7423C21.5198 63.4502 21.5198 63.0842 21.5075 62.9114H21.4869C21.1537 63.5284 20.4257 63.8739 19.7676 63.8739C18.7846 63.8739 17.8221 63.2775 17.8221 62.2205C17.8221 61.3855 18.2211 60.9002 18.7722 60.6329C19.3234 60.3655 20.0391 60.308 20.6437 60.308H21.4458C21.4458 59.4113 21.0468 59.107 20.1913 59.107C19.5743 59.107 18.9573 59.3455 18.472 59.7116L18.4267 58.4695C18.9902 58.2104 19.747 58.05 20.364 58.05C22.0627 58.05 22.7661 58.7533 22.7661 60.3984V61.11C22.7661 61.6735 22.7784 62.093 22.7866 62.5043C22.799 62.9238 22.8195 63.3145 22.8524 63.7464H21.5774L21.5733 63.7423ZM27.163 56.8243C27.0314 56.7503 26.8504 56.631 26.5378 56.631C26.0524 56.631 25.9003 57.0505 25.9003 57.4865V58.1775H27.1671V59.2386H25.9003V63.7464H24.4524V59.2386H23.383V58.1775H24.4524V57.4001C24.4524 56.2855 25.0776 55.5082 26.2252 55.5082C26.5913 55.5082 27.0026 55.5616 27.2864 55.6274L27.1671 56.8284L27.163 56.8243ZM30.4699 62.8127C31.1733 62.8127 31.7779 62.5536 32.3208 62.2493V63.4297C31.7902 63.7217 31.1856 63.8739 30.4082 63.8739C28.5697 63.8739 27.5003 62.8127 27.5003 60.9866C27.5003 59.3743 28.3558 58.0458 30.0833 58.0458C32.1481 58.0458 32.7321 59.4607 32.7321 61.4102H28.8823C28.9481 62.3068 29.5733 62.8168 30.4699 62.8168M37.4992 63.878C35.056 63.878 33.3573 62.6564 33.3573 60.1064C33.3573 57.5564 34.9368 56.0716 37.4992 56.0716C37.9969 56.0716 38.655 56.1703 39.2062 56.3842L39.0992 57.6592C38.5275 57.3343 38.0051 57.2603 37.4663 57.2603C35.9075 57.2603 34.9368 58.4489 34.9368 59.9954C34.9368 61.5418 35.8869 62.6893 37.4992 62.6893C38.0956 62.6893 38.7949 62.5618 39.1527 62.3768L39.2185 63.6435C38.6674 63.771 38.0709 63.8821 37.4992 63.8821M42.4843 63.8821C40.6458 63.8821 39.5764 62.6071 39.5764 61.0072C39.5764 59.1687 40.8432 58.0541 42.4843 58.0541C44.1255 58.0541 45.4046 59.1687 45.4046 61.0072C45.4046 62.6071 44.3352 63.8821 42.4843 63.8821ZM51.381 63.7505H49.9332V60.7768C49.9332 60.0941 49.9208 59.1769 48.9913 59.1769C47.9424 59.1769 47.7162 60.3121 47.7162 61.0277V63.7505H46.2684V58.1816H47.6422V58.9383H47.6627C48.1193 58.3008 48.7321 58.05 49.4889 58.05C50.8093 58.05 51.381 58.9795 51.381 60.2339V63.7464V63.7505ZM54.8401 63.8821C53.7049 63.8821 53.0756 63.1788 53.0756 62.0765V59.2427H52.0062V58.1816H53.0756V57.067L54.5234 56.6022V58.1816H55.8108V59.2427H54.5234V61.838C54.5234 62.3151 54.655 62.7551 55.2062 62.7551C55.4653 62.7551 55.7162 62.7017 55.8643 62.603L55.9054 63.7505C55.601 63.8369 55.2679 63.8821 54.836 63.8821M59.8416 59.5553C59.7141 59.4813 59.4509 59.436 59.1918 59.436C58.0113 59.436 58.0113 60.9084 58.0113 61.7064V63.7505H56.5635V58.1816H57.8509V59.4483H57.8715C57.9373 58.9301 58.5296 58.0541 59.3974 58.0541C59.5373 58.0541 59.6895 58.0541 59.8416 58.0952V59.5553ZM63.8643 63.7505C63.8108 63.4585 63.8108 63.0924 63.7985 62.9197H63.7779C63.4406 63.5366 62.7167 63.8821 62.0586 63.8821C61.0756 63.8821 60.1131 63.2857 60.1131 62.2287C60.1131 61.3938 60.5121 60.9084 61.0632 60.6411C61.6144 60.3696 62.326 60.3162 62.9347 60.3162H63.7368C63.7368 59.4196 63.3378 59.1152 62.4823 59.1152C61.8653 59.1152 61.2483 59.3538 60.763 59.7198L60.7219 58.4777C61.2854 58.2186 62.0422 58.0582 62.6591 58.0582C64.3578 58.0582 65.0612 58.7615 65.0612 60.4067V61.1182C65.0612 61.6817 65.0735 62.1012 65.0817 62.5125C65.0941 62.932 65.1147 63.3227 65.1476 63.7546H63.8725L63.8643 63.7505ZM68.5985 63.8821C66.7722 63.8821 65.8509 62.64 65.8509 60.9413C65.8509 59.2427 66.801 58.0541 68.545 58.0541C69.129 58.0541 69.5486 58.1199 69.9517 58.2392L69.8242 59.3867C69.565 59.2674 69.2853 59.181 68.8411 59.181C67.9445 59.181 67.3727 59.8925 67.3727 60.9455C67.3727 61.9984 67.8581 62.7634 68.874 62.7634C69.2853 62.7634 69.7378 62.6112 69.9887 62.5043L70.0545 63.7052C69.6309 63.8327 69.199 63.8903 68.6067 63.8903M72.9871 63.8903C71.8519 63.8903 71.2226 63.187 71.2226 62.0847V59.2509H70.1532V58.1898H71.2226V57.0752L72.6704 56.6104V58.1898H73.9578V59.2509H72.6704V61.8462C72.6704 62.3233 72.8021 62.7634 73.3532 62.7634C73.6123 62.7634 73.8632 62.7099 74.0113 62.6112L74.0524 63.7587C73.7481 63.8451 73.4149 63.8903 72.983 63.8903M77.2319 63.8903C75.3933 63.8903 74.3239 62.6153 74.3239 61.0154C74.3239 59.1769 75.5908 58.0623 77.2319 58.0623C78.873 58.0623 80.1522 59.1769 80.1522 61.0154C80.1522 62.6153 79.0828 63.8903 77.2319 63.8903ZM84.3229 59.5635C84.1954 59.4895 83.9321 59.4442 83.673 59.4442C82.4925 59.4442 82.4925 60.9167 82.4925 61.7146V63.7587H81.0447V58.1898H82.3321V59.4566H82.3527C82.4185 58.9383 83.0108 58.0623 83.8787 58.0623C84.0185 58.0623 84.1707 58.0623 84.3229 58.1034V59.5635Z" fill="#385E9D"></path></svg> 